{
    "asset" : {
        "generator" : "Khronos glTF Blender I/O v1.0.5",
        "version" : "2.0"
    },
    "scene" : 0,
    "scenes" : [
        {
            "name" : "Scene",
            "nodes" : [
                0,
                1,
                2,
                3
            ]
        }
    ],
    "nodes" : [
        {
            "mesh" : 0,
            "name" : "room_start"
        },
        {
            "mesh" : 1,
            "name" : "room_end"
        },
        {
            "mesh" : 2,
            "name" : "room_L"
        },
        {
            "mesh" : 3,
            "name" : "room_T"
        }
    ],
    "meshes" : [
        {
            "name" : "room_start",
            "primitives" : [
                {
                    "attributes" : {
                        "POSITION" : 0,
                        "NORMAL" : 1,
                        "TEXCOORD_0" : 2
                    },
                    "indices" : 3
                }
            ]
        },
        {
            "name" : "room_end",
            "primitives" : [
                {
                    "attributes" : {
                        "POSITION" : 4,
                        "NORMAL" : 5,
                        "TEXCOORD_0" : 6
                    },
                    "indices" : 7
                }
            ]
        },
        {
            "name" : "room_L",
            "primitives" : [
                {
                    "attributes" : {
                        "POSITION" : 8,
                        "NORMAL" : 9,
                        "TEXCOORD_0" : 10
                    },
                    "indices" : 11
                }
            ]
        },
        {
            "name" : "room_T",
            "primitives" : [
                {
                    "attributes" : {
                        "POSITION" : 12,
                        "NORMAL" : 13,
                        "TEXCOORD_0" : 14
                    },
                    "indices" : 15
                }
            ]
        }
    ],
    "accessors" : [
        {
            "bufferView" : 0,
            "componentType" : 5126,
            "count" : 64,
            "max" : [
                2,
                6,
                4
            ],
            "min" : [
                -6,
                0,
                -6
            ],
            "type" : "VEC3"
        },
        {
            "bufferView" : 1,
            "componentType" : 5126,
            "count" : 64,
            "type" : "VEC3"
        },
        {
            "bufferView" : 2,
            "componentType" : 5126,
            "count" : 64,
            "type" : "VEC2"
        },
        {
            "bufferView" : 3,
            "componentType" : 5123,
            "count" : 120,
            "type" : "SCALAR"
        },
        {
            "bufferView" : 4,
            "componentType" : 5126,
            "count" : 54,
            "max" : [
                0,
                4,
                0
            ],
            "min" : [
                -6,
                0,
                -10
            ],
            "type" : "VEC3"
        },
        {
            "bufferView" : 5,
            "componentType" : 5126,
            "count" : 54,
            "type" : "VEC3"
        },
        {
            "bufferView" : 6,
            "componentType" : 5126,
            "count" : 54,
            "type" : "VEC2"
        },
        {
            "bufferView" : 7,
            "componentType" : 5123,
            "count" : 78,
            "type" : "SCALAR"
        },
        {
            "bufferView" : 8,
            "componentType" : 5126,
            "count" : 28,
            "max" : [
                2,
                2,
                2
            ],
            "min" : [
                -2,
                0,
                -2
            ],
            "type" : "VEC3"
        },
        {
            "bufferView" : 9,
            "componentType" : 5126,
            "count" : 28,
            "type" : "VEC3"
        },
        {
            "bufferView" : 10,
            "componentType" : 5126,
            "count" : 28,
            "type" : "VEC2"
        },
        {
            "bufferView" : 11,
            "componentType" : 5123,
            "count" : 48,
            "type" : "SCALAR"
        },
        {
            "bufferView" : 12,
            "componentType" : 5126,
            "count" : 48,
            "max" : [
                4,
                2,
                2
            ],
            "min" : [
                -2,
                0,
                -2
            ],
            "type" : "VEC3"
        },
        {
            "bufferView" : 13,
            "componentType" : 5126,
            "count" : 48,
            "type" : "VEC3"
        },
        {
            "bufferView" : 14,
            "componentType" : 5126,
            "count" : 48,
            "type" : "VEC2"
        },
        {
            "bufferView" : 15,
            "componentType" : 5123,
            "count" : 66,
            "type" : "SCALAR"
        }
    ],
    "bufferViews" : [
        {
            "buffer" : 0,
            "byteLength" : 768,
            "byteOffset" : 0
        },
        {
            "buffer" : 0,
            "byteLength" : 768,
            "byteOffset" : 768
        },
        {
            "buffer" : 0,
            "byteLength" : 512,
            "byteOffset" : 1536
        },
        {
            "buffer" : 0,
            "byteLength" : 240,
            "byteOffset" : 2048
        },
        {
            "buffer" : 0,
            "byteLength" : 648,
            "byteOffset" : 2288
        },
        {
            "buffer" : 0,
            "byteLength" : 648,
            "byteOffset" : 2936
        },
        {
            "buffer" : 0,
            "byteLength" : 432,
            "byteOffset" : 3584
        },
        {
            "buffer" : 0,
            "byteLength" : 156,
            "byteOffset" : 4016
        },
        {
            "buffer" : 0,
            "byteLength" : 336,
            "byteOffset" : 4172
        },
        {
            "buffer" : 0,
            "byteLength" : 336,
            "byteOffset" : 4508
        },
        {
            "buffer" : 0,
            "byteLength" : 224,
            "byteOffset" : 4844
        },
        {
            "buffer" : 0,
            "byteLength" : 96,
            "byteOffset" : 5068
        },
        {
            "buffer" : 0,
            "byteLength" : 576,
            "byteOffset" : 5164
        },
        {
            "buffer" : 0,
            "byteLength" : 576,
            "byteOffset" : 5740
        },
        {
            "buffer" : 0,
            "byteLength" : 384,
            "byteOffset" : 6316
        },
        {
            "buffer" : 0,
            "byteLength" : 132,
            "byteOffset" : 6700
        }
    ],
    "buffers" : [
        {
            "byteLength" : 6832,
            "uri" : "data:application/octet-stream;base64,"
        }
    ]
}
